# xmcd
#
# Track frame offsets:
#	150
#	33450
#	75150
#	97050
#	120150
#
# Disc length: 1972 seconds
#
# Revision: 0
# Processed by: cddbd v1.5.2PL0 Copyright (c) Steve Scherf et al.
# Submitted via: EasyCDDAExtractor 9.0.0.1
#
DISCID=2c07b205
DTITLE=Black Sabbath - Tweeter Center Mansfield 15-07-05 Master Disc 2
DYEAR=2005
DGENRE=Hard Rock
TTITLE0=Into The Void
TTITLE1=Black Sabbath
TTITLE2=The Wizard
TTITLE3=Paranoid 
TTITLE4=Children Of The Grave
EXTD=
EXTT0=
EXTT1=
EXTT2=
EXTT3=
EXTT4=
PLAYORDER=
